solid ASCII
  facet normal 0.000000e+00 0.000000e+00 1.000000e+00
    outer loop
      vertex   2.175000e+01 7.300003e+01 4.000000e+02
      vertex   2.163841e+01 7.520044e+01 4.000000e+02
      vertex   0.000000e+00 7.300003e+01 4.000000e+02
    endloop
  endfacet
  facet normal 0.000000e+00 0.000000e+00 1.000000e+00
    outer loop
      vertex   2.175000e+01 7.300003e+01 4.000000e+02
      vertex   0.000000e+00 7.300003e+01 4.000000e+02
      vertex   2.163841e+01 7.079962e+01 4.000000e+02
    endloop
  endfacet
  facet normal 0.000000e+00 -0.000000e+00 1.000000e+00
    outer loop
      vertex   1.998733e+01 6.442279e+01 4.000000e+02
      vertex   2.075253e+01 6.648888e+01 4.000000e+02
      vertex   0.000000e+00 7.300003e+01 4.000000e+02
    endloop
  endfacet
  facet normal 0.000000e+00 0.000000e+00 1.000000e+00
    outer loop
      vertex   0.000000e+00 7.300003e+01 4.000000e+02
      vertex   2.075253e+01 6.648888e+01 4.000000e+02
      vertex   2.130478e+01 6.862179e+01 4.000000e+02
    endloop
  endfacet
  facet normal 0.000000e+00 0.000000e+00 1.000000e+00
    outer loop
      vertex   0.000000e+00 7.300003e+01 4.000000e+02
      vertex   2.130478e+01 6.862179e+01 4.000000e+02
      vertex   2.163841e+01 7.079962e+01 4.000000e+02
    endloop
  endfacet
  facet normal 0.000000e+00 -0.000000e+00 1.000000e+00
    outer loop
      vertex   1.650299e+01 5.883268e+01 4.000000e+02
      vertex   1.785161e+01 6.057494e+01 4.000000e+02
      vertex   0.000000e+00 7.300003e+01 4.000000e+02
    endloop
  endfacet
  facet normal 0.000000e+00 0.000000e+00 1.000000e+00
    outer loop
      vertex   0.000000e+00 7.300003e+01 4.000000e+02
      vertex   1.785161e+01 6.057494e+01 4.000000e+02
      vertex   1.901704e+01 6.244471e+01 4.000000e+02
    endloop
  endfacet
  facet normal 0.000000e+00 0.000000e+00 1.000000e+00
    outer loop
      vertex   0.000000e+00 7.300003e+01 4.000000e+02
      vertex   1.901704e+01 6.244471e+01 4.000000e+02
      vertex   1.998733e+01 6.442279e+01 4.000000e+02
    endloop
  endfacet
  facet normal 0.000000e+00 -0.000000e+00 1.000000e+00
    outer loop
      vertex   1.150497e+01 5.454202e+01 4.000000e+02
      vertex   1.331330e+01 5.580066e+01 4.000000e+02
      vertex   0.000000e+00 7.300003e+01 4.000000e+02
    endloop
  endfacet
  facet normal 0.000000e+00 0.000000e+00 1.000000e+00
    outer loop
      vertex   0.000000e+00 7.300003e+01 4.000000e+02
      vertex   1.331330e+01 5.580066e+01 4.000000e+02
      vertex   1.498503e+01 5.723579e+01 4.000000e+02
    endloop
  endfacet
  facet normal 0.000000e+00 0.000000e+00 1.000000e+00
    outer loop
      vertex   0.000000e+00 7.300003e+01 4.000000e+02
      vertex   1.498503e+01 5.723579e+01 4.000000e+02
      vertex   1.650299e+01 5.883268e+01 4.000000e+02
    endloop
  endfacet
  facet normal 0.000000e+00 -0.000000e+00 1.000000e+00
    outer loop
      vertex   5.451693e+00 5.194435e+01 4.000000e+02
      vertex   7.553889e+00 5.260392e+01 4.000000e+02
      vertex   0.000000e+00 7.300003e+01 4.000000e+02
    endloop
  endfacet
  facet normal 0.000000e+00 0.000000e+00 1.000000e+00
    outer loop
      vertex   0.000000e+00 7.300003e+01 4.000000e+02
      vertex   7.553889e+00 5.260392e+01 4.000000e+02
      vertex   9.578574e+00 5.347278e+01 4.000000e+02
    endloop
  endfacet
  facet normal 0.000000e+00 0.000000e+00 1.000000e+00
    outer loop
      vertex   0.000000e+00 7.300003e+01 4.000000e+02
      vertex   9.578574e+00 5.347278e+01 4.000000e+02
      vertex   1.150497e+01 5.454202e+01 4.000000e+02
    endloop
  endfacet
  facet normal 0.000000e+00 0.000000e+00 1.000000e+00
    outer loop
      vertex   -1.101620e+00 5.127794e+01 4.000000e+02
      vertex   1.101620e+00 5.127794e+01 4.000000e+02
      vertex   0.000000e+00 7.300003e+01 4.000000e+02
    endloop
  endfacet
  facet normal 0.000000e+00 0.000000e+00 1.000000e+00
    outer loop
      vertex   0.000000e+00 7.300003e+01 4.000000e+02
      vertex   1.101620e+00 5.127794e+01 4.000000e+02
      vertex   3.293553e+00 5.150084e+01 4.000000e+02
    endloop
  endfacet
  facet normal 0.000000e+00 0.000000e+00 1.000000e+00
    outer loop
      vertex   0.000000e+00 7.300003e+01 4.000000e+02
      vertex   3.293553e+00 5.150084e+01 4.000000e+02
      vertex   5.451693e+00 5.194435e+01 4.000000e+02
    endloop
  endfacet
  facet normal -0.000000e+00 0.000000e+00 1.000000e+00
    outer loop
      vertex   -7.553889e+00 5.260392e+01 4.000000e+02
      vertex   -5.451693e+00 5.194435e+01 4.000000e+02
      vertex   0.000000e+00 7.300003e+01 4.000000e+02
    endloop
  endfacet
  facet normal 0.000000e+00 0.000000e+00 1.000000e+00
    outer loop
      vertex   0.000000e+00 7.300003e+01 4.000000e+02
      vertex   -5.451693e+00 5.194435e+01 4.000000e+02
      vertex   -3.293553e+00 5.150084e+01 4.000000e+02
    endloop
  endfacet
  facet normal 0.000000e+00 0.000000e+00 1.000000e+00
    outer loop
      vertex   0.000000e+00 7.300003e+01 4.000000e+02
      vertex   -3.293553e+00 5.150084e+01 4.000000e+02
      vertex   -1.101620e+00 5.127794e+01 4.000000e+02
    endloop
  endfacet
  facet normal -0.000000e+00 0.000000e+00 1.000000e+00
    outer loop
      vertex   -1.331330e+01 5.580066e+01 4.000000e+02
      vertex   -1.150497e+01 5.454202e+01 4.000000e+02
      vertex   0.000000e+00 7.300003e+01 4.000000e+02
    endloop
  endfacet
  facet normal 0.000000e+00 0.000000e+00 1.000000e+00
    outer loop
      vertex   0.000000e+00 7.300003e+01 4.000000e+02
      vertex   -1.150497e+01 5.454202e+01 4.000000e+02
      vertex   -9.578574e+00 5.347278e+01 4.000000e+02
    endloop
  endfacet
  facet normal 0.000000e+00 0.000000e+00 1.000000e+00
    outer loop
      vertex   0.000000e+00 7.300003e+01 4.000000e+02
      vertex   -9.578574e+00 5.347278e+01 4.000000e+02
      vertex   -7.553889e+00 5.260392e+01 4.000000e+02
    endloop
  endfacet
  facet normal -0.000000e+00 0.000000e+00 1.000000e+00
    outer loop
      vertex   -1.785161e+01 6.057494e+01 4.000000e+02
      vertex   -1.650299e+01 5.883268e+01 4.000000e+02
      vertex   0.000000e+00 7.300003e+01 4.000000e+02
    endloop
  endfacet
  facet normal 0.000000e+00 0.000000e+00 1.000000e+00
    outer loop
      vertex   0.000000e+00 7.300003e+01 4.000000e+02
      vertex   -1.650299e+01 5.883268e+01 4.000000e+02
      vertex   -1.498503e+01 5.723579e+01 4.000000e+02
    endloop
  endfacet
  facet normal 0.000000e+00 0.000000e+00 1.000000e+00
    outer loop
      vertex   0.000000e+00 7.300003e+01 4.000000e+02
      vertex   -1.498503e+01 5.723579e+01 4.000000e+02
      vertex   -1.331330e+01 5.580066e+01 4.000000e+02
    endloop
  endfacet
  facet normal -0.000000e+00 0.000000e+00 1.000000e+00
    outer loop
      vertex   -2.075253e+01 6.648888e+01 4.000000e+02
      vertex   -1.998733e+01 6.442279e+01 4.000000e+02
      vertex   0.000000e+00 7.300003e+01 4.000000e+02
    endloop
  endfacet
  facet normal 0.000000e+00 0.000000e+00 1.000000e+00
    outer loop
      vertex   0.000000e+00 7.300003e+01 4.000000e+02
      vertex   -1.998733e+01 6.442279e+01 4.000000e+02
      vertex   -1.901704e+01 6.244471e+01 4.000000e+02
    endloop
  endfacet
  facet normal 0.000000e+00 0.000000e+00 1.000000e+00
    outer loop
      vertex   0.000000e+00 7.300003e+01 4.000000e+02
      vertex   -1.901704e+01 6.244471e+01 4.000000e+02
      vertex   -1.785161e+01 6.057494e+01 4.000000e+02
    endloop
  endfacet
  facet normal -0.000000e+00 0.000000e+00 1.000000e+00
    outer loop
      vertex   -2.175000e+01 7.300003e+01 4.000000e+02
      vertex   -2.163841e+01 7.079962e+01 4.000000e+02
      vertex   0.000000e+00 7.300003e+01 4.000000e+02
    endloop
  endfacet
  facet normal 0.000000e+00 0.000000e+00 1.000000e+00
    outer loop
      vertex   0.000000e+00 7.300003e+01 4.000000e+02
      vertex   -2.163841e+01 7.079962e+01 4.000000e+02
      vertex   -2.130478e+01 6.862179e+01 4.000000e+02
    endloop
  endfacet
  facet normal 0.000000e+00 0.000000e+00 1.000000e+00
    outer loop
      vertex   0.000000e+00 7.300003e+01 4.000000e+02
      vertex   -2.130478e+01 6.862179e+01 4.000000e+02
      vertex   -2.075253e+01 6.648888e+01 4.000000e+02
    endloop
  endfacet
  facet normal 0.000000e+00 0.000000e+00 1.000000e+00
    outer loop
      vertex   -2.075253e+01 7.951118e+01 4.000000e+02
      vertex   -2.130478e+01 7.737827e+01 4.000000e+02
      vertex   0.000000e+00 7.300003e+01 4.000000e+02
    endloop
  endfacet
  facet normal 0.000000e+00 0.000000e+00 1.000000e+00
    outer loop
      vertex   0.000000e+00 7.300003e+01 4.000000e+02
      vertex   -2.130478e+01 7.737827e+01 4.000000e+02
      vertex   -2.163841e+01 7.520044e+01 4.000000e+02
    endloop
  endfacet
  facet normal 0.000000e+00 0.000000e+00 1.000000e+00
    outer loop
      vertex   0.000000e+00 7.300003e+01 4.000000e+02
      vertex   -2.163841e+01 7.520044e+01 4.000000e+02
      vertex   -2.175000e+01 7.300003e+01 4.000000e+02
    endloop
  endfacet
  facet normal 0.000000e+00 0.000000e+00 1.000000e+00
    outer loop
      vertex   -1.785161e+01 8.542511e+01 4.000000e+02
      vertex   -1.901704e+01 8.355535e+01 4.000000e+02
      vertex   0.000000e+00 7.300003e+01 4.000000e+02
    endloop
  endfacet
  facet normal 0.000000e+00 0.000000e+00 1.000000e+00
    outer loop
      vertex   0.000000e+00 7.300003e+01 4.000000e+02
      vertex   -1.901704e+01 8.355535e+01 4.000000e+02
      vertex   -1.998733e+01 8.157727e+01 4.000000e+02
    endloop
  endfacet
  facet normal 0.000000e+00 0.000000e+00 1.000000e+00
    outer loop
      vertex   0.000000e+00 7.300003e+01 4.000000e+02
      vertex   -1.998733e+01 8.157727e+01 4.000000e+02
      vertex   -2.075253e+01 7.951118e+01 4.000000e+02
    endloop
  endfacet
  facet normal 0.000000e+00 0.000000e+00 1.000000e+00
    outer loop
      vertex   -1.331330e+01 9.019940e+01 4.000000e+02
      vertex   -1.498503e+01 8.876427e+01 4.000000e+02
      vertex   0.000000e+00 7.300003e+01 4.000000e+02
    endloop
  endfacet
  facet normal 0.000000e+00 0.000000e+00 1.000000e+00
    outer loop
      vertex   0.000000e+00 7.300003e+01 4.000000e+02
      vertex   -1.498503e+01 8.876427e+01 4.000000e+02
      vertex   -1.650299e+01 8.716738e+01 4.000000e+02
    endloop
  endfacet
  facet normal 0.000000e+00 0.000000e+00 1.000000e+00
    outer loop
      vertex   0.000000e+00 7.300003e+01 4.000000e+02
      vertex   -1.650299e+01 8.716738e+01 4.000000e+02
      vertex   -1.785161e+01 8.542511e+01 4.000000e+02
    endloop
  endfacet
  facet normal 0.000000e+00 0.000000e+00 1.000000e+00
    outer loop
      vertex   -7.553889e+00 9.339614e+01 4.000000e+02
      vertex   -9.578574e+00 9.252728e+01 4.000000e+02
      vertex   0.000000e+00 7.300003e+01 4.000000e+02
    endloop
  endfacet
  facet normal 0.000000e+00 0.000000e+00 1.000000e+00
    outer loop
      vertex   0.000000e+00 7.300003e+01 4.000000e+02
      vertex   -9.578574e+00 9.252728e+01 4.000000e+02
      vertex   -1.150497e+01 9.145804e+01 4.000000e+02
    endloop
  endfacet
  facet normal 0.000000e+00 0.000000e+00 1.000000e+00
    outer loop
      vertex   0.000000e+00 7.300003e+01 4.000000e+02
      vertex   -1.150497e+01 9.145804e+01 4.000000e+02
      vertex   -1.331330e+01 9.019940e+01 4.000000e+02
    endloop
  endfacet
  facet normal 0.000000e+00 0.000000e+00 1.000000e+00
    outer loop
      vertex   -1.101620e+00 9.472212e+01 4.000000e+02
      vertex   -3.293553e+00 9.449922e+01 4.000000e+02
      vertex   0.000000e+00 7.300003e+01 4.000000e+02
    endloop
  endfacet
  facet normal 0.000000e+00 0.000000e+00 1.000000e+00
    outer loop
      vertex   0.000000e+00 7.300003e+01 4.000000e+02
      vertex   -3.293553e+00 9.449922e+01 4.000000e+02
      vertex   -5.451693e+00 9.405571e+01 4.000000e+02
    endloop
  endfacet
  facet normal 0.000000e+00 0.000000e+00 1.000000e+00
    outer loop
      vertex   0.000000e+00 7.300003e+01 4.000000e+02
      vertex   -5.451693e+00 9.405571e+01 4.000000e+02
      vertex   -7.553889e+00 9.339614e+01 4.000000e+02
    endloop
  endfacet
  facet normal 0.000000e+00 0.000000e+00 1.000000e+00
    outer loop
      vertex   5.451693e+00 9.405571e+01 4.000000e+02
      vertex   3.293553e+00 9.449922e+01 4.000000e+02
      vertex   0.000000e+00 7.300003e+01 4.000000e+02
    endloop
  endfacet
  facet normal 0.000000e+00 0.000000e+00 1.000000e+00
    outer loop
      vertex   0.000000e+00 7.300003e+01 4.000000e+02
      vertex   3.293553e+00 9.449922e+01 4.000000e+02
      vertex   1.101620e+00 9.472212e+01 4.000000e+02
    endloop
  endfacet
  facet normal 0.000000e+00 -0.000000e+00 1.000000e+00
    outer loop
      vertex   0.000000e+00 7.300003e+01 4.000000e+02
      vertex   1.101620e+00 9.472212e+01 4.000000e+02
      vertex   -1.101620e+00 9.472212e+01 4.000000e+02
    endloop
  endfacet
  facet normal 0.000000e+00 0.000000e+00 1.000000e+00
    outer loop
      vertex   1.150497e+01 9.145804e+01 4.000000e+02
      vertex   9.578574e+00 9.252728e+01 4.000000e+02
      vertex   0.000000e+00 7.300003e+01 4.000000e+02
    endloop
  endfacet
  facet normal 0.000000e+00 0.000000e+00 1.000000e+00
    outer loop
      vertex   0.000000e+00 7.300003e+01 4.000000e+02
      vertex   9.578574e+00 9.252728e+01 4.000000e+02
      vertex   7.553889e+00 9.339614e+01 4.000000e+02
    endloop
  endfacet
  facet normal 0.000000e+00 0.000000e+00 1.000000e+00
    outer loop
      vertex   0.000000e+00 7.300003e+01 4.000000e+02
      vertex   7.553889e+00 9.339614e+01 4.000000e+02
      vertex   5.451693e+00 9.405571e+01 4.000000e+02
    endloop
  endfacet
  facet normal 0.000000e+00 0.000000e+00 1.000000e+00
    outer loop
      vertex   1.650299e+01 8.716738e+01 4.000000e+02
      vertex   1.498503e+01 8.876427e+01 4.000000e+02
      vertex   0.000000e+00 7.300003e+01 4.000000e+02
    endloop
  endfacet
  facet normal 0.000000e+00 0.000000e+00 1.000000e+00
    outer loop
      vertex   0.000000e+00 7.300003e+01 4.000000e+02
      vertex   1.498503e+01 8.876427e+01 4.000000e+02
      vertex   1.331330e+01 9.019940e+01 4.000000e+02
    endloop
  endfacet
  facet normal 0.000000e+00 0.000000e+00 1.000000e+00
    outer loop
      vertex   0.000000e+00 7.300003e+01 4.000000e+02
      vertex   1.331330e+01 9.019940e+01 4.000000e+02
      vertex   1.150497e+01 9.145804e+01 4.000000e+02
    endloop
  endfacet
  facet normal 0.000000e+00 0.000000e+00 1.000000e+00
    outer loop
      vertex   1.998733e+01 8.157727e+01 4.000000e+02
      vertex   1.901704e+01 8.355535e+01 4.000000e+02
      vertex   0.000000e+00 7.300003e+01 4.000000e+02
    endloop
  endfacet
  facet normal 0.000000e+00 0.000000e+00 1.000000e+00
    outer loop
      vertex   0.000000e+00 7.300003e+01 4.000000e+02
      vertex   1.901704e+01 8.355535e+01 4.000000e+02
      vertex   1.785161e+01 8.542511e+01 4.000000e+02
    endloop
  endfacet
  facet normal 0.000000e+00 0.000000e+00 1.000000e+00
    outer loop
      vertex   0.000000e+00 7.300003e+01 4.000000e+02
      vertex   1.785161e+01 8.542511e+01 4.000000e+02
      vertex   1.650299e+01 8.716738e+01 4.000000e+02
    endloop
  endfacet
  facet normal 0.000000e+00 0.000000e+00 1.000000e+00
    outer loop
      vertex   2.163841e+01 7.520044e+01 4.000000e+02
      vertex   2.130478e+01 7.737827e+01 4.000000e+02
      vertex   0.000000e+00 7.300003e+01 4.000000e+02
    endloop
  endfacet
  facet normal 0.000000e+00 0.000000e+00 1.000000e+00
    outer loop
      vertex   0.000000e+00 7.300003e+01 4.000000e+02
      vertex   2.130478e+01 7.737827e+01 4.000000e+02
      vertex   2.075253e+01 7.951118e+01 4.000000e+02
    endloop
  endfacet
  facet normal 0.000000e+00 0.000000e+00 1.000000e+00
    outer loop
      vertex   0.000000e+00 7.300003e+01 4.000000e+02
      vertex   2.075253e+01 7.951118e+01 4.000000e+02
      vertex   1.998733e+01 8.157727e+01 4.000000e+02
    endloop
  endfacet
endsolid
